<?xml version="1.0" standalone="no"?>
<!DOCTYPE svg PUBLIC "-//W3C//DTD SVG 20010904//EN"
 "http://www.w3.org/TR/2001/REC-SVG-20010904/DTD/svg10.dtd">
<svg version="1.0" xmlns="http://www.w3.org/2000/svg"
 width="500.000000pt" height="500.000000pt" viewBox="0 0 500.000000 500.000000"
 preserveAspectRatio="xMidYMid meet">

<g transform="translate(0.000000,500.000000) scale(0.100000,-0.100000)"
fill="#000000" stroke="none">
<path d="M0 2500 l0 -2500 2500 0 2500 0 0 2500 0 2500 -2500 0 -2500 0 0
-2500z m2509 1714 c17 -4 28 -10 25 -15 -3 -5 2 -9 11 -9 10 0 13 5 9 12 -4 6
-3 8 4 5 5 -4 8 -17 4 -29 -3 -15 -2 -19 7 -14 6 4 24 -1 39 -11 15 -10 34
-21 42 -25 9 -4 1 -7 -20 -7 -20 -1 -40 3 -45 7 -16 13 -343 -4 -430 -23 -353
-74 -624 -226 -868 -485 -195 -207 -337 -490 -392 -780 -37 -200 -28 -484 22
-670 33 -124 36 -141 19 -105 -9 17 -15 38 -16 48 0 9 -4 17 -9 17 -6 0 -6
-12 0 -30 6 -16 9 -35 6 -42 -2 -7 -9 3 -15 22 -6 22 -11 28 -11 15 -2 -18 -3
-18 -16 5 -8 14 -14 19 -15 11 0 -8 -2 -12 -5 -9 -3 2 0 19 6 36 9 26 8 35 -4
47 -14 14 -15 11 -11 -22 l4 -38 -14 40 c-81 238 -73 612 20 908 76 239 227
487 406 667 298 299 707 472 1129 479 48 0 100 -2 118 -5z m15 -162 c3 -5 -54
-12 -127 -15 -73 -3 -167 -13 -211 -21 -202 -39 -412 -127 -588 -248 -114 -78
-273 -234 -357 -351 -202 -283 -302 -644 -272 -986 12 -130 13 -137 32 -229
16 -78 5 -74 -16 5 -35 135 -44 210 -45 370 0 293 66 524 228 793 199 331 562
582 952 659 58 11 121 22 140 24 74 8 259 7 264 -1z m224 -176 c17 -30 32 -58
32 -63 -1 -14 -165 -276 -176 -280 -8 -3 -54 67 -73 110 -2 5 16 7 39 5 l43
-3 49 83 c46 77 49 86 38 113 -12 29 -13 29 -95 29 -82 0 -83 0 -95 -29 -8
-21 -9 -35 -1 -49 13 -25 5 -32 -32 -25 -17 3 -33 15 -39 28 -9 19 -4 33 23
79 l34 56 110 0 110 0 33 -54z m-318 -130 c0 -2 7 -20 15 -40 15 -35 15 -37
-7 -45 -13 -5 -34 -20 -47 -35 l-24 -25 79 -87 c43 -47 89 -90 101 -95 42 -16
45 -46 43 -383 l-1 -319 98 5 c170 9 265 63 318 179 24 55 27 70 23 143 -5 96
-35 164 -94 216 -54 47 -138 82 -193 80 -87 -3 -91 -2 -106 32 -16 38 -12 48
19 48 15 0 48 28 106 91 l83 90 -32 33 c-25 26 -39 32 -62 30 -35 -4 -36 3 -8
50 34 59 63 51 144 -39 l68 -76 -24 -27 c-13 -15 -60 -65 -103 -112 l-80 -85
55 -2 c252 -12 422 -88 489 -219 36 -71 35 -179 -2 -250 -31 -59 -79 -104
-146 -138 -97 -49 -146 -58 -354 -63 l-198 -6 0 -118 c0 -236 41 -309 177
-309 45 0 100 -18 63 -21 -53 -3 -663 0 -667 4 -5 6 17 13 69 21 31 6 40 13
60 54 l23 47 0 435 c0 469 -2 491 -52 530 -14 11 -41 20 -59 20 -18 0 -36 5
-39 11 -5 7 37 9 146 4 l154 -7 -26 28 c-110 121 -179 199 -179 204 0 3 17 23
38 45 20 22 43 48 51 58 13 17 12 18 -15 11 -83 -20 -110 -64 -120 -199 -6
-78 -9 -85 -28 -85 -32 0 -66 -28 -66 -55 0 -27 34 -55 67 -55 l23 0 0 -402
c0 -471 -11 -573 -66 -620 -15 -14 -24 -32 -24 -50 0 -22 -15 -44 -62 -92 -35
-35 -77 -72 -93 -84 -39 -26 -203 -94 -217 -90 -5 2 12 18 39 35 91 59 131
102 168 176 60 124 65 180 65 771 0 316 -4 547 -11 586 -19 122 -59 156 -198
167 -44 3 -81 10 -81 15 0 6 96 7 243 3 133 -3 283 -2 332 3 121 12 125 13
125 8z m220 -4 c0 -4 -10 -23 -23 -41 -19 -28 -30 -34 -65 -37 -44 -3 -61 10
-77 64 -6 22 -5 22 79 22 47 0 86 -4 86 -8z m1041 -219 c13 -16 12 -17 -3 -4
-17 13 -22 21 -14 21 2 0 10 -8 17 -17z m67 -94 c-3 -9 -12 0 -22 21 l-18 35
22 -21 c12 -12 20 -28 18 -35z m63 -38 c0 -9 4 -6 10 8 9 24 10 23 39 -22 65
-103 138 -278 177 -427 43 -164 56 -455 28 -638 -85 -566 -483 -1069 -1012
-1278 -89 -35 -331 -99 -340 -90 -3 3 8 8 23 11 50 11 51 15 1 11 -55 -4 -55
3 0 15 27 5 16 6 -37 4 -54 -3 -65 -2 -40 4 19 5 28 9 20 10 -26 3 9 18 60 26
25 4 104 28 175 52 404 139 711 406 901 783 234 463 229 982 -14 1453 -37 72
-48 103 -44 126 l4 32 24 -33 c13 -17 24 -39 25 -47z m9 49 c0 -5 -2 -10 -4
-10 -3 0 -8 5 -11 10 -3 6 -1 10 4 10 6 0 11 -4 11 -10z m-115 -111 c88 -134
157 -308 196 -497 29 -139 32 -389 5 -532 -19 -104 -84 -306 -123 -384 -195
-385 -528 -667 -922 -780 -48 -14 -114 -28 -147 -31 l-59 -5 60 15 c33 8 65
16 70 18 299 92 511 219 701 419 217 230 352 509 394 817 16 118 14 325 -5
438 -31 188 -113 411 -200 548 -21 32 -33 55 -27 51 6 -3 31 -38 57 -77z
m-2848 -1261 c-3 -8 -6 -5 -6 6 -1 11 2 17 5 13 3 -3 4 -12 1 -19z m972 -143
c46 0 56 -4 74 -27 36 -48 16 -178 -43 -283 -37 -65 -116 -143 -155 -153 -23
-7 -30 -14 -30 -33 0 -13 -4 -26 -9 -29 -10 -6 -16 93 -6 100 4 3 22 77 40
165 46 225 45 216 27 209 -30 -11 -70 -83 -75 -135 -4 -39 -7 -47 -14 -35 -21
38 26 143 81 184 17 12 31 29 31 38 0 10 5 12 12 7 7 -4 37 -7 67 -8z m1211
-11 c0 -8 -4 -14 -9 -14 -5 0 -14 -12 -20 -27 -17 -42 -111 -393 -111 -414 0
-28 23 -23 122 26 50 25 100 45 112 44 19 0 19 -1 -4 -10 -14 -6 -66 -31 -117
-55 -75 -37 -96 -43 -112 -34 -24 13 -23 21 26 205 43 163 60 220 80 267 15
36 33 43 33 12z m290 -31 c0 -10 -13 -46 -30 -81 -28 -59 -39 -95 -54 -167
l-6 -30 19 23 c11 12 27 22 36 22 14 0 16 -6 11 -31 -5 -29 -4 -30 12 -18 9 7
25 22 34 33 9 12 19 18 23 14 10 -10 -63 -77 -103 -93 -20 -9 -43 -23 -51 -33
-12 -15 -12 -11 -7 28 6 36 5 43 -5 33 -20 -20 -37 -15 -52 13 -12 23 -15 24
-26 10 -23 -27 -44 -20 -36 12 14 56 52 91 70 62 3 -5 -3 -10 -14 -10 -20 0
-41 -27 -41 -52 1 -7 11 0 24 15 20 25 24 26 30 12 3 -9 6 -25 6 -36 0 -26 26
-24 44 4 8 12 27 69 41 127 25 100 50 160 67 160 4 0 8 -8 8 -17z m-646 -76
c-9 -28 -24 -71 -35 -95 -22 -52 -49 -187 -49 -248 0 -26 -5 -44 -11 -44 -12
0 -9 55 7 155 l7 40 -20 -22 c-21 -24 -43 -30 -43 -13 0 6 -11 10 -24 10 -18
0 -27 8 -35 30 -5 17 -13 30 -16 30 -3 0 -15 -20 -26 -45 -23 -52 -33 -58 -27
-15 5 34 -4 37 -46 15 -36 -19 -56 -19 -56 -1 0 11 -9 13 -34 9 -28 -4 -35 -2
-38 13 -4 16 -7 15 -18 -9 -7 -15 -18 -26 -24 -24 -13 4 -27 57 -18 71 4 6 9
-5 12 -24 l6 -35 17 33 c20 36 37 42 37 13 0 -32 15 -32 58 0 43 32 62 31 62
-2 0 -10 7 -19 15 -19 14 0 22 7 51 45 15 19 15 19 8 -5 -6 -22 -5 -23 9 -11
15 11 19 9 34 -18 17 -29 43 -42 43 -22 0 21 54 72 70 68 14 -4 20 6 29 47 15
67 48 139 60 131 6 -3 4 -26 -5 -58z m-619 -127 c3 -5 -3 -10 -14 -10 -20 0
-41 -27 -41 -52 1 -7 11 0 24 15 20 25 24 26 30 12 3 -9 6 -26 6 -37 0 -34 33
-16 57 31 26 51 38 66 28 33 -4 -13 -8 -38 -9 -56 -2 -18 -6 -38 -10 -45 -11
-18 -26 -13 -19 7 5 14 3 15 -8 5 -20 -20 -37 -15 -52 13 -12 23 -15 24 -26
10 -16 -19 -38 -21 -44 -3 -3 9 -10 7 -25 -7 -39 -35 -66 3 -42 59 7 16 9 13
9 -17 1 -21 6 -38 12 -38 5 0 29 20 51 45 41 45 61 54 73 35z m97 -62 c-7 -7
-12 -8 -12 -2 0 6 3 14 7 17 3 4 9 5 12 2 2 -3 -1 -11 -7 -17z"/>
<path d="M2493 4173 c9 -2 23 -2 30 0 6 3 -1 5 -18 5 -16 0 -22 -2 -12 -5z"/>
<path d="M876 2141 c-4 -7 -5 -15 -2 -18 9 -9 19 4 14 18 -4 11 -6 11 -12 0z"/>
<path d="M3780 3396 c0 -2 7 -9 15 -16 13 -11 14 -10 9 4 -5 14 -24 23 -24 12z"/>
<path d="M3850 3350 c0 -5 5 -10 11 -10 5 0 7 5 4 10 -3 6 -8 10 -11 10 -2 0
-4 -4 -4 -10z"/>
<path d="M2785 1020 c-19 -8 -19 -9 3 -9 12 -1 22 4 22 9 0 6 -1 10 -2 9 -2 0
-12 -4 -23 -9z"/>
<path d="M2800 979 c0 -5 5 -7 10 -4 6 3 10 8 10 11 0 2 -4 4 -10 4 -5 0 -10
-5 -10 -11z"/>
<path d="M1803 1909 c-36 -10 -30 9 -83 -267 -18 -90 -30 -166 -27 -168 10
-11 64 26 106 71 60 65 112 179 118 259 5 59 4 66 -20 90 -28 27 -42 30 -94
15z"/>
<path d="M3271 1602 c-23 -33 -26 -42 -11 -42 11 0 44 59 37 67 -3 2 -14 -9
-26 -25z"/>
<path d="M2576 1645 c-9 -13 -16 -32 -16 -42 1 -15 5 -13 25 10 25 28 33 57
16 57 -5 0 -16 -11 -25 -25z"/>
<path d="M2350 1649 c0 -5 5 -7 10 -4 6 3 10 8 10 11 0 2 -4 4 -10 4 -5 0 -10
-5 -10 -11z"/>
<path d="M2330 1627 c0 -19 16 -31 24 -18 3 5 -1 14 -9 21 -12 10 -15 10 -15
-3z"/>
</g>
</svg>
